<?xml version="1.0" standalone="no"?>
<!DOCTYPE svg PUBLIC "-//W3C//DTD SVG 20010904//EN"
 "http://www.w3.org/TR/2001/REC-SVG-20010904/DTD/svg10.dtd">
<svg version="1.0" xmlns="http://www.w3.org/2000/svg"
 width="300.000000pt" height="58.000000pt" viewBox="0 0 300.000000 58.000000"
 preserveAspectRatio="xMidYMid meet">
<metadata>
Created by potrace 1.10, written by Peter Selinger 2001-2011
</metadata>
<g transform="translate(0.000000,58.000000) scale(0.100000,-0.100000)"
fill="#000000" stroke="none">
<path d="M2185 560 c-29 -11 -46 -35 -39 -54 10 -26 40 -19 54 13 15 38 10 51
-15 41z"/>
<path d="M410 541 c-22 -13 -99 -25 -153 -24 -92 2 -207 -22 -234 -49 -23 -24
-24 -25 -6 -47 l18 -22 38 35 c23 21 53 37 76 41 l38 6 -5 -53 c-2 -29 -8 -57
-12 -63 -7 -9 -15 -46 -25 -120 -6 -45 -22 -95 -39 -120 -14 -21 -14 -24 0
-29 41 -16 64 31 90 184 9 52 19 100 23 105 4 6 15 31 25 58 14 38 22 47 41
47 13 0 27 -5 30 -10 9 -14 41 -4 88 26 46 30 52 61 7 35z"/>
<path d="M1877 508 c-19 -19 -26 -43 -36 -119 l-13 -95 -75 -3 c-62 -2 -75 1
-70 12 3 8 13 46 22 83 9 38 24 74 33 81 12 10 12 15 3 26 -17 21 -215 -79
-219 -111 -2 -12 1 -22 7 -22 20 0 61 23 61 35 0 13 50 39 58 30 15 -15 -5
-163 -21 -162 -7 0 -33 -1 -59 -1 -42 -2 -48 -5 -48 -23 0 -17 5 -20 23 -16
95 22 87 23 86 -14 0 -19 -4 -55 -8 -82 -7 -40 -5 -47 8 -47 29 1 51 26 51 59
0 17 -5 31 -11 31 -6 0 -9 14 -7 32 2 25 9 34 28 40 14 3 44 12 66 19 23 6 47
8 54 4 14 -9 11 -183 -3 -203 -6 -7 -8 -14 -6 -16 6 -7 52 36 78 72 l23 33
-21 6 c-18 5 -21 13 -21 59 0 47 3 54 20 54 44 0 110 25 116 43 8 27 3 28 -46
11 -24 -8 -54 -13 -67 -9 -27 6 -25 24 14 120 13 33 25 66 26 74 3 24 -21 23
-46 -1z"/>
<path d="M2885 406 c-45 -20 -85 -62 -85 -89 0 -13 15 -41 33 -63 19 -21 37
-48 40 -58 10 -26 -15 -60 -64 -91 -44 -28 -45 -51 -1 -34 37 14 112 77 124
105 9 19 7 33 -7 64 -10 22 -24 40 -30 40 -16 0 -39 55 -30 70 3 5 24 19 46
31 60 30 37 53 -26 25z"/>
<path d="M556 399 c-62 -10 -100 -46 -122 -113 -9 -28 -21 -57 -27 -63 -5 -7
-7 -13 -4 -13 3 0 -1 -23 -9 -51 -27 -90 1 -129 47 -68 13 17 32 39 42 47 9 9
17 20 17 24 0 15 55 87 65 84 5 -1 11 -20 13 -42 4 -41 39 -115 58 -121 7 -2
19 4 28 14 9 10 37 39 63 64 27 28 43 51 39 58 -5 8 -21 -2 -49 -29 -23 -22
-45 -40 -48 -40 -14 0 -31 67 -36 144 -5 66 -4 80 10 88 10 5 17 13 17 18 0
11 -34 11 -104 -1z m7 -64 c-3 -41 -10 -54 -65 -129 -32 -45 -59 -73 -63 -67
-8 15 20 112 51 174 22 42 29 48 52 45 20 -2 27 -8 25 -23z"/>
<path d="M885 375 c-28 -13 -57 -24 -66 -24 -17 -1 -45 -28 -37 -36 2 -3 20 0
39 5 18 6 37 10 40 10 7 0 -15 -114 -31 -157 -15 -41 2 -103 28 -103 16 0 90
71 160 153 18 21 37 35 42 32 12 -8 13 -105 1 -124 -5 -8 -7 -20 -4 -27 4 -11
10 -11 31 0 15 8 36 23 46 35 17 19 17 21 3 21 -22 0 -23 76 -1 149 8 29 13
55 11 57 -12 12 -53 -21 -137 -111 -50 -55 -98 -104 -106 -108 -35 -20 -4 180
35 226 21 26 -2 26 -54 2z"/>
<path d="M2365 382 c-25 -4 -97 -53 -103 -69 -5 -16 30 -17 45 -2 7 7 12 1 17
-23 4 -22 2 -36 -6 -43 -7 -5 -12 -20 -10 -33 2 -13 -4 -44 -12 -69 -20 -57
-20 -53 3 -53 33 0 50 28 57 91 8 68 47 128 92 142 41 13 72 29 72 39 0 18
-49 6 -93 -22 -26 -16 -49 -30 -52 -30 -2 0 1 16 7 36 11 41 10 41 -17 36z"/>
<path d="M2601 359 c-45 -32 -51 -40 -57 -75 -3 -14 -12 -37 -21 -50 -15 -24
-22 -142 -8 -163 6 -10 162 36 213 63 17 9 32 23 32 31 0 17 -26 20 -35 5 -9
-15 -65 -36 -112 -42 l-43 -6 0 48 0 48 39 7 c21 3 52 18 69 33 25 23 29 34
28 72 -1 42 -3 45 -34 51 -26 5 -40 1 -71 -22z m56 -44 c4 -27 -19 -54 -48
-57 -31 -4 -35 21 -8 56 24 30 53 31 56 1z"/>
<path d="M2120 350 c-14 -11 -29 -20 -33 -20 -4 0 -22 -13 -40 -30 -24 -22
-29 -32 -20 -41 9 -9 15 -6 25 10 13 22 48 29 48 10 0 -6 -4 -19 -10 -29 -11
-20 -17 -166 -7 -176 3 -3 19 3 35 15 17 12 35 21 40 21 17 0 72 51 72 66 0
19 -6 18 -44 -11 -41 -31 -58 -32 -51 -2 2 12 9 56 14 98 6 41 13 83 17 92 9
23 -15 21 -46 -3z"/>
<path d="M1272 233 c-18 -18 -22 -28 -13 -31 7 -2 18 1 24 7 14 14 57 14 93 0
21 -7 34 -7 51 2 32 17 29 24 -16 37 -65 20 -109 15 -139 -15z"/>
</g>
</svg>
